<svg width="118" height="44" viewBox="0 0 118 44" fill="none" xmlns="http://www.w3.org/2000/svg">
<path d="M19.009 42C29.5074 42 38.018 33.4934 38.018 23C38.018 12.5066 29.5074 4 19.009 4C8.51062 4 0 12.5066 0 23C0 33.4934 8.51062 42 19.009 42Z" fill="#0B36A8"/>
<path d="M18.2993 21.7798H24.813V30.2925C23.952 30.577 23.0573 30.8053 22.1289 30.9775C21.2005 31.1423 20.1486 31.2246 18.9731 31.2246C17.341 31.2246 15.9559 30.9027 14.8179 30.2588C13.6799 29.6149 12.8151 28.6641 12.2236 27.4062C11.6322 26.1484 11.3364 24.6024 11.3364 22.7681C11.3364 21.0461 11.6659 19.5562 12.3247 18.2983C12.991 17.0405 13.9606 16.0672 15.2334 15.3784C16.5137 14.6896 18.0747 14.3452 19.9165 14.3452C20.785 14.3452 21.6423 14.4388 22.4883 14.626C23.3343 14.8132 24.1017 15.0565 24.7905 15.356L23.6338 18.1411C23.1322 17.8866 22.5594 17.6732 21.9155 17.501C21.2716 17.3288 20.5978 17.2427 19.894 17.2427C18.8833 17.2427 18.0036 17.4748 17.2549 17.939C16.5137 18.4032 15.9372 19.0545 15.5254 19.8931C15.1211 20.7241 14.9189 21.7049 14.9189 22.8354C14.9189 23.9061 15.0649 24.8569 15.3569 25.688C15.6489 26.5116 16.1094 27.1592 16.7383 27.6309C17.3672 28.0951 18.187 28.3271 19.1978 28.3271C19.6919 28.3271 20.1074 28.3047 20.4443 28.2598C20.7887 28.2074 21.1107 28.1549 21.4102 28.1025V24.6772H18.2993V21.7798Z" fill="white"/>
<path d="M53.9385 15.1807H60.1689V23.3232C59.3454 23.5954 58.4896 23.8138 57.6016 23.9785C56.7135 24.1361 55.7074 24.2148 54.583 24.2148C53.0218 24.2148 51.6969 23.9069 50.6084 23.291C49.5199 22.6751 48.6927 21.7656 48.127 20.5625C47.5612 19.3594 47.2783 17.8805 47.2783 16.126C47.2783 14.4788 47.5934 13.0537 48.2236 11.8506C48.861 10.6475 49.7884 9.71647 51.0059 9.05762C52.2305 8.39876 53.7236 8.06934 55.4854 8.06934C56.3161 8.06934 57.1361 8.15885 57.9453 8.33789C58.7546 8.51693 59.4886 8.74967 60.1475 9.03613L59.041 11.7002C58.5612 11.4567 58.0133 11.2526 57.3975 11.0879C56.7816 10.9232 56.137 10.8408 55.4639 10.8408C54.4971 10.8408 53.6556 11.0628 52.9395 11.5068C52.2305 11.9508 51.679 12.5739 51.2852 13.376C50.8984 14.1709 50.7051 15.109 50.7051 16.1904C50.7051 17.2145 50.8447 18.124 51.124 18.9189C51.4033 19.7067 51.8438 20.3262 52.4453 20.7773C53.0469 21.2214 53.8311 21.4434 54.7979 21.4434C55.2705 21.4434 55.668 21.4219 55.9902 21.3789C56.3197 21.3288 56.6276 21.2786 56.9141 21.2285V17.9521H53.9385V15.1807ZM67.2601 11.7432C68.8714 11.7432 70.1068 12.0941 70.9661 12.7959C71.8255 13.4977 72.2552 14.5648 72.2552 15.9971V24H69.9671L69.3333 22.3672H69.2474C68.9036 22.7969 68.5527 23.1478 68.1946 23.4199C67.8366 23.6921 67.4248 23.8926 66.9593 24.0215C66.4938 24.1504 65.928 24.2148 65.262 24.2148C64.553 24.2148 63.9157 24.0788 63.3499 23.8066C62.7913 23.5345 62.3509 23.1191 62.0286 22.5605C61.7064 21.9948 61.5452 21.2786 61.5452 20.4121C61.5452 19.1374 61.9928 18.1992 62.888 17.5977C63.7832 16.9889 65.126 16.6523 66.9163 16.5879L69.0003 16.5234V15.9971C69.0003 15.3669 68.8356 14.9049 68.5062 14.6113C68.1767 14.3177 67.7184 14.1709 67.1312 14.1709C66.5511 14.1709 65.9818 14.2533 65.4232 14.418C64.8646 14.5827 64.306 14.7904 63.7474 15.041L62.6624 12.8281C63.2998 12.4915 64.0124 12.2266 64.8001 12.0332C65.595 11.8398 66.415 11.7432 67.2601 11.7432ZM69.0003 18.4355L67.7327 18.4785C66.6728 18.5072 65.9352 18.6969 65.5198 19.0479C65.1116 19.3988 64.9075 19.8607 64.9075 20.4336C64.9075 20.9349 65.0543 21.293 65.348 21.5078C65.6416 21.7155 66.0247 21.8193 66.4974 21.8193C67.1992 21.8193 67.79 21.6117 68.2698 21.1963C68.7568 20.7809 69.0003 20.1901 69.0003 19.4238V18.4355ZM77.5954 7.28516V11.1738C77.5954 11.625 77.581 12.0726 77.5524 12.5166C77.5309 12.9606 77.5023 13.3044 77.4664 13.5479H77.5954C77.9105 13.0537 78.3401 12.6348 78.8844 12.291C79.4287 11.9401 80.1341 11.7646 81.0006 11.7646C82.347 11.7646 83.4391 12.291 84.277 13.3438C85.1149 14.3965 85.5338 15.9398 85.5338 17.9736C85.5338 19.3415 85.3405 20.4909 84.9538 21.4219C84.567 22.3457 84.0263 23.0439 83.3317 23.5166C82.637 23.9821 81.8314 24.2148 80.9147 24.2148C80.0338 24.2148 79.3392 24.0573 78.8307 23.7422C78.3222 23.4271 77.9105 23.0726 77.5954 22.6787H77.3698L76.8219 24H74.319V7.28516H77.5954ZM79.9479 14.3857C79.375 14.3857 78.9202 14.5039 78.5836 14.7402C78.247 14.9766 78 15.3311 77.8424 15.8037C77.692 16.2764 77.6097 16.8743 77.5954 17.5977V17.9521C77.5954 19.1195 77.7672 20.0146 78.111 20.6377C78.4547 21.2536 79.0814 21.5615 79.9909 21.5615C80.664 21.5615 81.1976 21.25 81.5914 20.627C81.9925 20.0039 82.193 19.1051 82.193 17.9307C82.193 16.7562 81.9925 15.8717 81.5914 15.2773C81.1904 14.6829 80.6426 14.3857 79.9479 14.3857ZM93.624 11.7646C93.7887 11.7646 93.9785 11.7754 94.1933 11.7969C94.4153 11.8112 94.5944 11.8327 94.7304 11.8613L94.4834 14.9336C94.3759 14.8978 94.222 14.8727 94.0214 14.8584C93.8281 14.8369 93.6598 14.8262 93.5166 14.8262C93.094 14.8262 92.6823 14.8799 92.2812 14.9873C91.8873 15.0947 91.5328 15.2702 91.2177 15.5137C90.9026 15.75 90.652 16.0651 90.4658 16.459C90.2867 16.8457 90.1972 17.3219 90.1972 17.8877V24H86.9209V11.9902H89.4023L89.8857 14.0098H90.0468C90.2832 13.6016 90.5768 13.2292 90.9277 12.8926C91.2858 12.5488 91.6904 12.2767 92.1416 12.0762C92.5999 11.8685 93.094 11.7646 93.624 11.7646ZM98.8675 11.9902V24H95.5911V11.9902H98.8675ZM97.2346 7.28516C97.7216 7.28516 98.1406 7.39974 98.4915 7.62891C98.8424 7.85091 99.0179 8.26986 99.0179 8.88574C99.0179 9.49447 98.8424 9.91699 98.4915 10.1533C98.1406 10.3825 97.7216 10.4971 97.2346 10.4971C96.7405 10.4971 96.318 10.3825 95.9671 10.1533C95.6233 9.91699 95.4514 9.49447 95.4514 8.88574C95.4514 8.26986 95.6233 7.85091 95.9671 7.62891C96.318 7.39974 96.7405 7.28516 97.2346 7.28516ZM105.948 11.7646C107.058 11.7646 108.014 11.9795 108.816 12.4092C109.618 12.8317 110.238 13.4476 110.674 14.2568C111.111 15.0661 111.33 16.0544 111.33 17.2217V18.8115H103.585C103.62 19.7354 103.896 20.4622 104.412 20.9922C104.935 21.515 105.658 21.7764 106.582 21.7764C107.348 21.7764 108.05 21.6976 108.687 21.54C109.324 21.3825 109.98 21.1462 110.653 20.8311V23.3662C110.059 23.6598 109.435 23.8747 108.784 24.0107C108.139 24.1468 107.355 24.2148 106.431 24.2148C105.228 24.2148 104.161 23.9928 103.23 23.5488C102.306 23.1048 101.579 22.4281 101.049 21.5186C100.527 20.609 100.265 19.4632 100.265 18.0811C100.265 16.6774 100.502 15.5101 100.974 14.5791C101.454 13.641 102.12 12.9391 102.972 12.4736C103.824 12.001 104.816 11.7646 105.948 11.7646ZM105.969 14.0957C105.332 14.0957 104.802 14.2998 104.379 14.708C103.964 15.1162 103.724 15.7572 103.66 16.6309H108.257C108.25 16.1439 108.161 15.7106 107.989 15.3311C107.824 14.9515 107.574 14.6507 107.237 14.4287C106.907 14.2067 106.485 14.0957 105.969 14.0957ZM115.95 24H112.674V7.28516H115.95V24Z" fill="white"/>
<path d="M47.4375 27.5781H50.9922C52.513 27.5781 53.6641 27.7917 54.4453 28.2188C55.2266 28.6458 55.6172 29.3958 55.6172 30.4688C55.6172 30.901 55.5469 31.2917 55.4062 31.6406C55.2708 31.9896 55.0729 32.276 54.8125 32.5C54.5521 32.724 54.2344 32.8698 53.8594 32.9375V33.0156C54.2396 33.0938 54.5833 33.2292 54.8906 33.4219C55.1979 33.6094 55.4427 33.8854 55.625 34.25C55.8125 34.6094 55.9062 35.0885 55.9062 35.6875C55.9062 36.3802 55.737 36.974 55.3984 37.4688C55.0599 37.9635 54.5755 38.3438 53.9453 38.6094C53.3203 38.8698 52.5755 39 51.7109 39H47.4375V27.5781ZM49.8594 32.1016H51.2656C51.9688 32.1016 52.4557 31.9922 52.7266 31.7734C52.9974 31.5495 53.1328 31.2214 53.1328 30.7891C53.1328 30.3516 52.9714 30.0391 52.6484 29.8516C52.3307 29.6589 51.8255 29.5625 51.1328 29.5625H49.8594V32.1016ZM49.8594 34.0234V37H51.4375C52.1667 37 52.6745 36.8594 52.9609 36.5781C53.2474 36.2969 53.3906 35.9193 53.3906 35.4453C53.3906 35.1641 53.3281 34.9167 53.2031 34.7031C53.0781 34.4896 52.8672 34.3229 52.5703 34.2031C52.2786 34.0833 51.875 34.0234 51.3594 34.0234H49.8594ZM61.915 30.1016C62.0348 30.1016 62.1728 30.1094 62.3291 30.125C62.4905 30.1354 62.6207 30.151 62.7197 30.1719L62.54 32.4062C62.4619 32.3802 62.3499 32.362 62.2041 32.3516C62.0634 32.3359 61.941 32.3281 61.8369 32.3281C61.5296 32.3281 61.2301 32.3672 60.9384 32.4453C60.652 32.5234 60.3942 32.651 60.165 32.8281C59.9358 33 59.7535 33.2292 59.6181 33.5156C59.4879 33.7969 59.4228 34.1432 59.4228 34.5547V39H57.04V30.2656H58.8447L59.1962 31.7344H59.3134C59.4853 31.4375 59.6989 31.1667 59.9541 30.9219C60.2145 30.6719 60.5087 30.474 60.8369 30.3281C61.1702 30.1771 61.5296 30.1016 61.915 30.1016ZM65.7284 30.2656V39H63.3456V30.2656H65.7284ZM64.5409 26.8438C64.8951 26.8438 65.1998 26.9271 65.455 27.0938C65.7102 27.2552 65.8378 27.5599 65.8378 28.0078C65.8378 28.4505 65.7102 28.7578 65.455 28.9297C65.1998 29.0964 64.8951 29.1797 64.5409 29.1797C64.1816 29.1797 63.8743 29.0964 63.6191 28.9297C63.3691 28.7578 63.2441 28.4505 63.2441 28.0078C63.2441 27.5599 63.3691 27.2552 63.6191 27.0938C63.8743 26.9271 64.1816 26.8438 64.5409 26.8438ZM73.3544 39H66.4559V37.5938L70.5028 32.0859H66.6981V30.2656H73.2138V31.8125L69.2763 37.1797H73.3544V39ZM82.0662 34.6172C82.0662 35.3464 81.9673 35.9922 81.7694 36.5547C81.5767 37.1172 81.2928 37.5938 80.9178 37.9844C80.548 38.3698 80.1001 38.6615 79.5741 38.8594C79.0532 39.0573 78.4647 39.1562 77.8084 39.1562C77.1939 39.1562 76.6287 39.0573 76.1131 38.8594C75.6027 38.6615 75.1574 38.3698 74.7772 37.9844C74.4022 37.5938 74.1105 37.1172 73.9022 36.5547C73.6991 35.9922 73.5975 35.3464 73.5975 34.6172C73.5975 33.6484 73.7694 32.8281 74.1131 32.1562C74.4569 31.4844 74.9465 30.974 75.5819 30.625C76.2173 30.276 76.9751 30.1016 77.8553 30.1016C78.673 30.1016 79.397 30.276 80.0272 30.625C80.6626 30.974 81.16 31.4844 81.5194 32.1562C81.884 32.8281 82.0662 33.6484 82.0662 34.6172ZM76.0272 34.6172C76.0272 35.1901 76.0897 35.6719 76.2147 36.0625C76.3397 36.4531 76.535 36.7474 76.8006 36.9453C77.0662 37.1432 77.4126 37.2422 77.8397 37.2422C78.2616 37.2422 78.6027 37.1432 78.8631 36.9453C79.1287 36.7474 79.3215 36.4531 79.4412 36.0625C79.5662 35.6719 79.6287 35.1901 79.6287 34.6172C79.6287 34.0391 79.5662 33.5599 79.4412 33.1797C79.3215 32.7943 79.1287 32.5052 78.8631 32.3125C78.5975 32.1198 78.2511 32.0234 77.8241 32.0234C77.1939 32.0234 76.7355 32.2396 76.4491 32.6719C76.1678 33.1042 76.0272 33.7526 76.0272 34.6172ZM85.4578 39H83.075V26.8438H85.4578V39ZM90.5838 30.0859C91.7556 30.0859 92.6541 30.3411 93.2791 30.8516C93.9041 31.362 94.2166 32.138 94.2166 33.1797V39H92.5525L92.0916 37.8125H92.0291C91.7791 38.125 91.5239 38.3802 91.2634 38.5781C91.003 38.776 90.7035 38.9219 90.365 39.0156C90.0265 39.1094 89.615 39.1562 89.1306 39.1562C88.615 39.1562 88.1515 39.0573 87.74 38.8594C87.3338 38.6615 87.0134 38.3594 86.7791 37.9531C86.5447 37.5417 86.4275 37.0208 86.4275 36.3906C86.4275 35.4635 86.753 34.7812 87.4041 34.3438C88.0551 33.901 89.0317 33.6562 90.3338 33.6094L91.8494 33.5625V33.1797C91.8494 32.7214 91.7296 32.3854 91.49 32.1719C91.2504 31.9583 90.9171 31.8516 90.49 31.8516C90.0681 31.8516 89.6541 31.9115 89.2478 32.0312C88.8416 32.151 88.4353 32.3021 88.0291 32.4844L87.24 30.875C87.7035 30.6302 88.2218 30.4375 88.7947 30.2969C89.3728 30.1562 89.9692 30.0859 90.5838 30.0859ZM91.8494 34.9531L90.9275 34.9844C90.1567 35.0052 89.6202 35.1432 89.3181 35.3984C89.0213 35.6536 88.8728 35.9896 88.8728 36.4062C88.8728 36.7708 88.9796 37.0312 89.1931 37.1875C89.4067 37.3385 89.6853 37.4141 90.0291 37.4141C90.5395 37.4141 90.9692 37.263 91.3181 36.9609C91.6723 36.6589 91.8494 36.2292 91.8494 35.6719V34.9531ZM100.592 30.1016C100.712 30.1016 100.85 30.1094 101.007 30.125C101.168 30.1354 101.298 30.151 101.397 30.1719L101.217 32.4062C101.139 32.3802 101.027 32.362 100.882 32.3516C100.741 32.3359 100.619 32.3281 100.514 32.3281C100.207 32.3281 99.9076 32.3672 99.6159 32.4453C99.3295 32.5234 99.0717 32.651 98.8425 32.8281C98.6133 33 98.431 33.2292 98.2956 33.5156C98.1654 33.7969 98.1003 34.1432 98.1003 34.5547V39H95.7175V30.2656H97.5222L97.8737 31.7344H97.9909C98.1628 31.4375 98.3764 31.1667 98.6316 30.9219C98.892 30.6719 99.1862 30.474 99.5144 30.3281C99.8477 30.1771 100.207 30.1016 100.592 30.1016ZM105.601 30.0859C106.773 30.0859 107.672 30.3411 108.297 30.8516C108.922 31.362 109.234 32.138 109.234 33.1797V39H107.57L107.109 37.8125H107.047C106.797 38.125 106.541 38.3802 106.281 38.5781C106.021 38.776 105.721 38.9219 105.382 39.0156C105.044 39.1094 104.632 39.1562 104.148 39.1562C103.632 39.1562 103.169 39.0573 102.757 38.8594C102.351 38.6615 102.031 38.3594 101.797 37.9531C101.562 37.5417 101.445 37.0208 101.445 36.3906C101.445 35.4635 101.771 34.7812 102.422 34.3438C103.073 33.901 104.049 33.6562 105.351 33.6094L106.867 33.5625V33.1797C106.867 32.7214 106.747 32.3854 106.507 32.1719C106.268 31.9583 105.935 31.8516 105.507 31.8516C105.086 31.8516 104.672 31.9115 104.265 32.0312C103.859 32.151 103.453 32.3021 103.047 32.4844L102.257 30.875C102.721 30.6302 103.239 30.4375 103.812 30.2969C104.39 30.1562 104.987 30.0859 105.601 30.0859ZM106.867 34.9531L105.945 34.9844C105.174 35.0052 104.638 35.1432 104.336 35.3984C104.039 35.6536 103.89 35.9896 103.89 36.4062C103.89 36.7708 103.997 37.0312 104.211 37.1875C104.424 37.3385 104.703 37.4141 105.047 37.4141C105.557 37.4141 105.987 37.263 106.336 36.9609C106.69 36.6589 106.867 36.2292 106.867 35.6719V34.9531Z" fill="white"/>
</svg>
